<svg width="24" height="24" viewBox="0 0 24 24" fill="none" xmlns="http://www.w3.org/2000/svg">
<path d="M23.4617 18.9397L19.7554 15.2329C19.0173 14.4977 17.7946 14.5202 17.0306 15.2842L15.1635 17.1513C15.0456 17.0861 14.9235 17.0182 14.7951 16.9461C13.616 16.2928 12.002 15.3973 10.3036 13.6977C8.60042 11.9947 7.70376 10.3781 7.04865 9.19819C6.97911 9.07309 6.91301 8.95273 6.84774 8.83829L8.10098 7.58671L8.71699 6.96986C9.48228 6.20458 9.50348 4.98226 8.76663 4.24505L5.06022 0.537814C4.32384 -0.198564 3.10069 -0.176174 2.33541 0.589109L1.29079 1.63966L1.31957 1.66809C0.969392 2.11494 0.676428 2.6305 0.458927 3.18633C0.25801 3.7154 0.132911 4.22041 0.0756929 4.72614C-0.413567 8.78356 1.44041 12.4915 6.47208 17.5237C13.4273 24.4784 19.0326 23.9531 19.2742 23.9273C19.8013 23.8645 20.3057 23.7386 20.8188 23.5393C21.3699 23.3239 21.8851 23.0318 22.3314 22.6824L22.3543 22.7024L23.4126 21.6661C24.1762 20.901 24.1982 19.6787 23.4617 18.9397ZM22.5892 20.8421L22.1228 21.3077L21.9371 21.4862C21.6446 21.769 21.1383 22.1662 20.3989 22.4554C19.9792 22.6169 19.5654 22.7207 19.1444 22.7708C19.0914 22.7759 13.8194 23.2257 7.29447 16.7013C1.74652 11.1536 0.857442 7.95679 1.23013 4.8606C1.27681 4.45023 1.37975 4.03727 1.5443 3.6057C1.83596 2.86209 2.23282 2.35625 2.51346 2.06329L3.15827 1.41208C3.469 1.10052 3.95364 1.07671 4.23772 1.36079L7.94401 5.06708C8.22761 5.35151 8.20522 5.83615 7.89402 6.14866L5.39097 8.64922L5.62198 9.03802C5.7504 9.25469 5.88616 9.49755 6.03116 9.76137C6.71968 11.0031 7.66171 12.7029 9.48097 14.5205C11.2955 16.3359 12.9927 17.2771 14.2307 17.9639C14.4982 18.1118 14.7425 18.248 14.9616 18.3785L15.3513 18.6095L17.8526 16.1073C18.1647 15.7966 18.651 15.7736 18.9351 16.0568L22.6397 19.7623C22.9229 20.0462 22.9004 20.5309 22.5892 20.8421Z" fill="#010002"/>
</svg>
